<?xml version="1.0" encoding="UTF-8" standalone="no"?>
<!-- Created with Inkscape (http://www.inkscape.org/) -->

<svg
   width="800mm"
   height="450mm"
   viewBox="0 0 800 450"
   version="1.1"
   id="svg5"
   xml:space="preserve"
   inkscape:version="1.2.2 (b0a8486541, 2022-12-01)"
   sodipodi:docname="placeholder-vehicle.svg"
   xmlns:inkscape="http://www.inkscape.org/namespaces/inkscape"
   xmlns:sodipodi="http://sodipodi.sourceforge.net/DTD/sodipodi-0.dtd"
   xmlns="http://www.w3.org/2000/svg"
   xmlns:svg="http://www.w3.org/2000/svg"><sodipodi:namedview
     id="namedview7"
     pagecolor="#ffffff"
     bordercolor="#000000"
     borderopacity="0.25"
     inkscape:showpageshadow="2"
     inkscape:pageopacity="0.0"
     inkscape:pagecheckerboard="0"
     inkscape:deskcolor="#d1d1d1"
     inkscape:document-units="mm"
     showgrid="false"
     inkscape:zoom="0.15768098"
     inkscape:cx="944.94595"
     inkscape:cy="570.77272"
     inkscape:window-width="1920"
     inkscape:window-height="893"
     inkscape:window-x="0"
     inkscape:window-y="27"
     inkscape:window-maximized="1"
     inkscape:current-layer="layer2" /><defs
     id="defs2"><rect
       x="120.49646"
       y="1642.5571"
       width="2688.9737"
       height="228.30909"
       id="rect722" /></defs><g
     inkscape:groupmode="layer"
     id="layer2"
     inkscape:label="Layer 2"><rect
       style="fill:#1a1a1a;stroke-width:2.18981;stroke-linecap:round;stroke-linejoin:bevel;paint-order:stroke fill markers"
       id="rect451"
       width="800"
       height="450"
       x="-1.4210855e-14"
       y="3.5527137e-15" /><text
       xml:space="preserve"
       transform="matrix(0.26458333,0,0,0.26458333,181.22034,-50.338983)"
       id="text720"
       style="font-weight:bold;font-size:192px;font-family:'URW Gothic';-inkscape-font-specification:'URW Gothic Bold';font-variation-settings:normal;white-space:pre;shape-inside:url(#rect722);opacity:1;vector-effect:none;fill:#b3b3b3;fill-opacity:1;stroke-width:1.43813;stroke-linecap:butt;stroke-linejoin:miter;stroke-miterlimit:4;stroke-dasharray:none;stroke-dashoffset:0;stroke-opacity:1;-inkscape-stroke:none;paint-order:stroke fill markers;stop-color:#000000;stop-opacity:1"><tspan
         x="120.49609"
         y="1808.4446"
         id="tspan851">VEHICLE IMAGE</tspan></text></g><g
     inkscape:groupmode="layer"
     id="layer4"
     inkscape:label="Layer 4"><path
       d="m 465.60504,199.7993 c -9.6002,-3.11666 -17.39473,-10.84836 -19.54487,-19.38736 -1.82722,-7.25657 0.14265,-16.26585 4.92418,-22.52053 15.13667,-19.8004 46.02016,-8.90044 46.02016,16.24223 0,7.31247 -2.03054,12.49008 -6.99878,17.84608 -5.95753,6.42258 -17.40445,10.09089 -24.40069,7.81958 z m 13.87487,-10.35076 c 2.21176,-1.17532 5.23592,-3.90194 6.72032,-6.05911 2.25803,-3.28146 2.62241,-5.01527 2.23056,-10.61378 -0.38909,-5.56276 -1.0545,-7.27782 -3.94293,-10.16626 -11.67593,-11.67595 -30.39887,-4.48222 -30.41222,11.68497 -0.007,12.91835 13.94543,21.24344 25.40427,15.15418 z m -14.79288,-3.25598 c -9.32171,-4.59397 -9.48423,-19.25077 -0.26659,-24.01748 9.56601,-4.94681 20.81192,1.13695 20.81192,11.25867 0,11.59397 -10.1364,17.88873 -20.54553,12.75881 z m 214.69321,12.92967 c -7.17285,-2.23979 -12.30014,-6.64436 -15.71728,-13.50161 -12.36296,-24.80935 16.89999,-49.58761 38.81878,-32.86965 9.37451,7.15023 13.22349,21.33507 8.68532,32.00862 -2.64402,6.21877 -9.61739,12.35944 -16.28333,14.33904 -6.90346,2.05006 -9.00365,2.0533 -15.50349,0.0221 z m 15.19011,-9.13727 c 6.06344,-2.53347 9.36743,-8.14696 9.36743,-15.91511 0,-7.04982 -1.94723,-10.82644 -7.85708,-15.23882 -6.9266,-5.17142 -20.40933,-1.56183 -24.68912,6.60973 -7.81631,14.924 7.46789,31.10859 23.17877,24.5442 z m -13.71537,-3.40099 c -4.27532,-1.9377 -6.14598,-4.12193 -7.46289,-8.71384 -2.53575,-8.84154 4.19283,-17.44577 13.64276,-17.44577 6.14181,0 9.76202,2.04304 12.29301,6.93744 6.1327,11.85933 -6.26187,24.75662 -18.47288,19.22217 z m -92.6175,-13.17582 -57.99439,-0.31034 0.0651,-41.82608 c 0.0729,-46.664569 0.32797,-48.599508 6.85953,-52.020546 3.74622,-1.962109 6.55263,-2.066203 38.66295,-1.434361 19.04291,0.374675 37.14718,1.191833 40.23176,1.815806 6.40407,1.295559 14.6452,6.82909 33.01324,22.166741 10.83442,9.04693 12.65976,10.15173 16.77496,10.15298 2.53971,8e-4 11.6289,0.80867 20.19827,1.79537 30.70295,3.5352 41.95854,7.2769 45.25698,15.04485 1.05321,2.48026 2.24399,7.00673 2.64622,10.05881 0.42093,3.19367 1.4319,5.81813 2.38175,6.18259 2.5678,0.9854 2.21945,14.93859 -0.49995,20.02439 -2.19015,4.096 -9.19085,7.86072 -14.87296,7.99802 -2.30203,0.0559 -2.59674,-0.50331 -2.59674,-4.92515 0,-8.57019 -3.03122,-15.1605 -9.83173,-21.37576 -15.41448,-14.08799 -41.39522,-9.66356 -50.58492,8.61441 -0.99602,1.98105 -2.16365,7.04474 -2.59474,11.25263 l -0.78383,7.65077 -4.16856,-0.27723 c -2.29267,-0.15259 -30.26599,-0.417 -62.16293,-0.58772 z m 51.79893,-62.61112 0.72924,-6.34764 -5.92276,-5.459109 C 621.8666,87.029801 614.79415,84.323263 596.39405,84.276382 c -8.03718,-0.02206 -9.54033,0.280553 -10.09265,2.020725 -0.93967,2.960684 1.0898,26.712103 2.39393,28.016193 0.92342,0.92345 41.04393,3.38636 48.30358,2.96532 1.91614,-0.11141 2.43216,-1.21236 3.0375,-6.48159 z M 575.83073,99.833001 V 84.82951 l -15.57018,-0.323933 c -13.63354,-0.28349 -15.75086,-0.07684 -17.02321,1.663248 -2.03576,2.784046 -2.00154,25.044695 0.0393,26.739905 1.51603,1.25824 13.03009,2.16165 25.62757,2.01083 l 6.92473,-0.0827 V 99.833301 Z m -72.70314,67.227379 c -2.16581,-16.66642 -12.70318,-26.98141 -28.89041,-28.28079 -15.47884,-1.24251 -28.40043,6.4935 -32.16592,19.25731 -1.01714,3.44769 -1.84935,7.47269 -1.84935,8.94441 0,1.47169 -0.42398,2.6758 -0.94212,2.6758 -1.12668,0 -12.25011,-1.9293 -20.71175,-3.59233 -9.17118,-1.80253 -9.50898,-2.93896 -8.55846,-28.7932 l 0.78234,-21.2809 57.99442,-0.2993 57.99439,-0.2993 v 28.8636 28.86362 h -11.43289 -11.43283 z"
       style="fill:#b3b3b3;stroke-width:0.380504"
       id="path593" /></g><g
     inkscape:groupmode="layer"
     id="layer3"
     inkscape:label="Layer 3"><path
       d="m 294.03664,345.40224 c -4.87613,-1.56247 -12.81236,-8.872 -15.09954,-13.90725 -2.72977,-6.00947 -2.62655,-16.46836 0.22044,-22.34965 4.88553,-10.09216 17.04186,-16.32368 27.47785,-14.08556 10.41774,2.23416 16.91753,7.85342 20.4101,17.645 6.91036,19.37339 -13.01,39.10576 -33.00899,32.69746 z m 16.79529,-9.84093 c 3.79137,-1.93661 6.96957,-6.17751 8.28188,-11.05104 3.76707,-13.98983 -11.88474,-25.70576 -25.23951,-18.89267 -5.41269,2.76135 -8.7144,8.25598 -8.81104,14.66327 -0.20199,13.38041 13.53792,21.52784 25.76867,15.28044 z m -14.88372,-2.82144 c -3.8365,-1.9413 -7.4048,-7.84179 -7.40024,-12.2369 0.003,-4.76241 3.15978,-10.04313 7.26975,-12.16844 12.40054,-6.41259 25.47416,8.00236 17.70868,19.52563 -2.8969,4.29875 -6.35423,6.19605 -11.29052,6.19605 -2.02745,0 -4.8569,-0.59237 -6.28767,-1.31634 z m 190.59434,13.00194 c -11.61551,-3.53326 -19.31532,-13.42674 -19.31656,-24.81981 -0.003,-27.93666 36.31898,-36.78304 48.76475,-11.87682 4.16947,8.34369 4.311,15.04337 0.48037,22.7305 -5.59375,11.22523 -18.75257,17.36575 -29.92856,13.96613 z m 14.96075,-10.22402 c 10.95515,-5.50591 11.8524,-21.48194 1.6226,-28.89237 -7.78523,-5.63959 -19.39349,-3.57763 -24.65979,4.38029 -3.7958,5.73583 -4.17254,10.9876 -1.19816,16.70056 4.90817,9.4272 14.72497,12.5913 24.23535,7.81152 z m -18.2375,-5.5195 c -3.50384,-3.5038 -4.08843,-4.74727 -4.08503,-8.68907 0.0134,-14.25487 16.99051,-19.91852 25.19028,-8.40298 1.47257,2.06801 2.1895,4.7003 2.1895,8.03898 0,4.36209 -0.4959,5.45997 -4.08899,9.05307 -3.70842,3.70846 -4.60213,4.08897 -9.60287,4.08897 -5.00081,0 -5.89447,-0.38055 -9.60289,-4.08897 z M 333.61756,316.92947 c -0.56093,-10.21903 -2.80416,-15.32332 -9.32217,-21.21192 -6.54248,-5.91074 -12.78585,-8.35339 -21.55281,-8.43214 -14.24138,-0.12784 -27.00673,9.06038 -30.01618,21.60528 -0.70018,2.91848 -0.99405,6.70095 -0.65317,8.40553 0.37739,1.88691 0.17885,3.09917 -0.50826,3.09917 -1.40475,0 -10.91171,-2.63138 -19.64129,-5.43634 -7.97438,-2.56234 -9.79056,-5.29224 -10.54608,-15.85202 -0.50385,-7.04183 -0.48624,-7.09847 2.78524,-8.96072 1.81078,-1.03076 3.32485,-2.34804 3.36462,-2.92733 0.0399,-0.57929 0.19596,-5.31875 0.34712,-10.5322 0.20334,-7.01358 0.87155,-10.81616 2.56948,-14.62038 2.59894,-5.82297 9.09726,-15.69906 15.04492,-22.86512 l 4.01346,-4.83563 -3.22077,-2.38123 c -1.77142,-1.3097 -2.81899,-2.76034 -2.32789,-3.2237 0.49105,-0.46331 4.44962,-1.01063 8.79665,-1.21625 6.2428,-0.29528 8.64253,-0.89987 11.41897,-2.87687 3.06481,-2.18233 5.35813,-2.62914 17.90008,-3.48777 7.91174,-0.54167 30.26223,-0.83383 49.66784,-0.64925 l 35.28285,0.33555 6.31929,2.82453 c 3.47563,1.55347 9.163,3.11947 12.63865,3.47995 13.75803,1.42701 23.09584,6.10002 49.70714,24.87574 l 12.43283,8.77202 7.37254,0.10838 c 12.95346,0.19059 47.65913,6.45789 54.23104,9.79328 4.43965,2.25326 8.43557,9.39211 8.43557,15.07052 0,3.15118 0.61834,4.35828 3.15963,6.16785 2.65893,1.89335 3.15557,2.94787 3.13393,6.65434 -0.0718,12.26569 -4.20221,19.40148 -13.17328,22.75799 -3.21087,1.20135 -6.28508,2.18426 -6.83154,2.18426 -0.56646,0 -0.72374,-1.96837 -0.36581,-4.57953 2.2958,-16.74968 -14.7798,-33.397 -32.8243,-32.00094 -17.69704,1.3692 -29.98367,14.68603 -29.98367,32.49776 v 6.20756 l -6.056,-0.7991 c -7.65471,-1.0101 -101.0918,-1.05338 -112.56469,-0.052 l -8.55924,0.74696 -0.47456,-8.64612 z m 106.76565,-56.62032 c -0.28052,-2.94157 0.1332,-4.8623 1.33322,-6.18822 1.63528,-1.80694 1.5467,-2.08545 -1.47053,-4.62426 -7.77689,-6.54379 -21.01724,-14.41677 -26.76172,-15.91304 -3.33996,-0.86993 -11.47149,-1.90446 -18.07,-2.29899 l -11.99728,-0.71723 0.66425,4.10165 c 0.36544,2.25588 1.64998,9.55205 2.85482,16.21369 l 2.19055,12.112 7.89916,0.6002 c 4.34451,0.32984 15.9688,0.68555 25.83172,0.7899 l 17.93255,0.18993 z m -63.04694,2.4223 c 0.24528,-0.43446 -0.0819,-7.66216 -0.72777,-16.06159 l -1.17385,-15.27167 -18.19632,-0.28824 -18.19633,-0.28823 0.29192,15.55994 0.29193,15.55999 17.37813,0.56633 c 9.55797,0.31139 17.9426,0.66693 18.63248,0.78994 0.68991,0.12281 1.45512,-0.13187 1.70045,-0.56633 z m -41.39734,-16.58819 c 0,-14.37987 -0.11845,-15.27168 -2.03079,-15.27168 -1.48562,0 -2.58467,1.48425 -4.09427,5.5294 -3.44736,9.23738 -6.51359,19.82534 -6.51359,22.49186 0,2.38039 0.35508,2.52206 6.31931,2.52206 h 6.31934 z m -18.9569,-0.002 c 3.08594,-7.82162 5.28679,-14.54519 4.89071,-14.94124 -0.39608,-0.39607 -8.64953,-0.1926 -18.34096,0.45229 l -17.62079,1.1724 -3.76295,4.21499 c -4.0939,4.58518 -10.45552,15.78369 -10.45552,18.40461 0,0.89842 0.49513,1.93952 1.10033,2.31356 1.23423,0.76283 19.71151,2.21866 31.11428,2.45153 l 7.46399,0.15234 5.61091,-14.22109 z m -0.79099,-20.52935 c 2.75158,-0.003 5.00279,-0.48238 5.00279,-1.06419 0,-1.31601 -24.03141,-0.16039 -26.33048,1.26629 -1.00879,0.62596 1.65609,0.76773 7.37253,0.39208 4.9238,-0.32313 11.20364,-0.59089 13.95516,-0.59435 z m 63.98311,-1.05956 c -2.15554,-1.39302 -48.4481,-1.39302 -48.4481,0 0,0.67304 9.02938,1.04741 25.01397,1.03711 16.53918,-0.0134 24.47872,-0.36185 23.43413,-1.03711 z"
       style="fill:#b3b3b3;stroke-width:0.347239"
       id="path569"
       sodipodi:nodetypes="cccccccssscssccssssccsssssssscssssscccccsssscsssccssscccccsccssscsscsscsccccccccccccccccccccccccccccsscsscscccccsccccccscccccscc" /></g><g
     inkscape:label="Layer 1"
     inkscape:groupmode="layer"
     id="layer1"
     style="fill:#b3b3b3"
     transform="matrix(3.0331277,0,0,3.0331277,-1068.7962,-368.23306)"><path
       style="font-variation-settings:normal;opacity:1;vector-effect:none;fill:#b3b3b3;fill-opacity:1;stroke-width:0.125449;stroke-linecap:butt;stroke-linejoin:miter;stroke-miterlimit:4;stroke-dasharray:none;stroke-dashoffset:0;stroke-opacity:1;-inkscape-stroke:none;stop-color:#000000;stop-opacity:1"
       d="m 384.99659,182.32251 c -2.37253,-0.86712 -4.55128,-4.03301 -4.55128,-6.6134 0,-5.21365 5.8202,-8.48369 10.45052,-5.87154 4.66976,2.6344 4.37339,9.67752 -0.51355,12.20466 -1.32355,0.68443 -3.91138,0.8191 -5.38569,0.28028 z m 5.12058,-2.69627 c 3.55101,-2.62537 1.79527,-8.46297 -2.54663,-8.46724 -4.05602,-0.004 -6.1869,4.8574 -3.46697,7.90954 1.44588,1.62246 4.22486,1.88019 6.0136,0.5577 z m -4.21713,-0.44462 c -1.40373,-0.61094 -2.00203,-1.63203 -2.00203,-3.41679 0,-1.32259 0.14525,-1.67622 1.06721,-2.59816 2.99393,-2.99395 7.66637,0.7439 5.69509,4.55594 -0.47032,0.90949 -2.17342,1.91948 -3.2001,1.89775 -0.31918,-0.007 -1.02124,-0.2042 -1.56017,-0.43874 z m 58.57521,3.29657 c -4.44241,-1.35132 -6.43361,-5.91347 -4.34901,-9.96424 1.9756,-3.83895 7.22898,-4.78898 10.51715,-1.90192 1.76935,1.55351 2.39438,3.10843 2.25328,5.60563 -0.0982,1.73722 -0.29361,2.38212 -1.05459,3.47993 -1.60703,2.3183 -4.85562,3.54448 -7.36683,2.7806 z m 3.77352,-2.48509 c 3.35807,-1.78449 3.35161,-6.59599 -0.0107,-8.2855 -1.45334,-0.73018 -2.94848,-0.69342 -4.37363,0.1076 -1.49746,0.84163 -2.26396,2.15295 -2.26396,3.87319 0,3.69472 3.51458,5.97024 6.64874,4.30474 z m -3.98687,-0.9726 c -1.28879,-0.78583 -1.66791,-1.52837 -1.66791,-3.26667 0,-3.40595 3.8515,-4.87326 6.31786,-2.4069 0.7014,0.70138 0.90143,1.18885 0.90143,2.19668 0,3.27511 -2.90173,5.09249 -5.55138,3.47689 z m -49.18745,-1.34962 c 0.43816,-1.32888 0.18965,-3.98066 -0.50813,-5.42209 -1.37436,-2.83904 -5.03028,-4.86455 -7.96143,-4.41091 -2.05333,0.31778 -4.53576,1.68086 -5.50967,3.0253 -1.08305,1.4951 -1.69989,3.6167 -1.53975,5.29591 0.11531,1.20864 0.0765,1.27637 -0.72923,1.27637 -0.9947,0 -4.69768,-0.75297 -7.01294,-1.42605 -1.33628,-0.38846 -1.70678,-0.66052 -2.14177,-1.57271 -0.74493,-1.56213 -0.70803,-4.94501 0.0679,-6.22372 0.57289,-0.9441 0.70209,-1.63682 1.16406,-6.24124 0.24821,-2.4738 -0.16122,-2.26156 5.19648,-2.69359 3.5635,-0.28734 3.77572,-0.34787 8.16094,-2.32745 2.47626,-1.11784 4.99665,-2.21588 5.60087,-2.44009 0.60424,-0.2242 1.23985,-0.51283 1.41248,-0.64139 1.20234,-0.89539 10.99349,-1.66553 18.46355,-1.45231 8.02289,0.22901 11.46103,0.78989 14.90469,2.43145 1.43428,0.68372 2.6859,1.24312 2.78139,1.24312 0.0955,0 2.17066,1.11348 4.6115,2.4744 l 4.4379,2.47442 4.70824,0.67563 c 9.60571,1.37844 15.01605,2.67181 17.48625,4.18019 1.16238,0.70977 2.75916,2.56903 2.75916,3.21269 0,0.18704 0.28797,0.58665 0.63993,0.888 0.59119,0.50621 0.62721,0.80213 0.47305,3.88643 -0.0918,1.83618 -0.24022,3.41186 -0.32987,3.50151 -0.27972,0.27971 -4.93766,0.95828 -6.69786,0.97573 l -1.67734,0.0166 0.21355,-1.55265 c 0.65116,-4.73446 -3.00825,-8.79475 -7.93331,-8.80241 -2.31167,-0.004 -3.90142,0.58278 -5.35341,1.97461 -1.75937,1.68647 -2.353,3.18337 -2.35874,5.94785 l -0.005,2.4326 H 416.6198 394.84165 l 0.23286,-0.70625 z m 34.49342,-16.94536 v -1.64207 l -3.13882,-1.53623 c -1.72635,-0.84493 -4.05693,-1.80349 -5.17906,-2.13014 -1.86973,-0.54427 -8.74949,-1.52279 -10.70641,-1.52279 h -0.82296 l 0.98435,3.7468 c 0.54139,2.06075 1.08976,3.85221 1.21859,3.98104 0.21773,0.21773 7.74813,0.57405 14.66243,0.6938 l 2.98188,0.0516 z m -21.47008,-3.06464 -0.46989,-3.76659 h -2.37824 c -2.61165,0 -6.78487,0.44553 -9.3335,0.99642 l -1.63573,0.35357 -0.18291,1.44372 c -0.1006,0.79404 -0.24496,1.86745 -0.32084,2.38536 -0.24289,1.65805 0.004,1.75639 5.06471,2.01772 2.57085,0.13275 5.81096,0.26275 7.20028,0.28889 l 2.52603,0.0474 z m -15.00952,0.55104 c 0.0975,-1.4233 0.15305,-2.60811 0.12332,-2.63293 -0.19187,-0.16016 -3.52263,1.70506 -3.76632,2.10913 -0.16519,0.27393 -0.20501,1.00626 -0.0885,1.6274 0.22193,1.18295 0.52321,1.35134 2.57885,1.44145 l 0.97526,0.0427 z"
       id="path231"
       sodipodi:nodetypes="sssssscsssssscssssssscsssccssssscssssssssssssssssscssssssscsssccccccccssscsssccccsscssssccssssscs" /></g></svg>
